<svg width="695" height="696" viewBox="0 0 695 696" fill="none" xmlns="http://www.w3.org/2000/svg">
<path fill-rule="evenodd" clip-rule="evenodd" d="M494.899 336.409C515.549 338.864 534.162 343.534 549.162 349.774C573.832 360.048 589.99 375.264 592.852 393.458C585.855 386.384 576.147 382.007 565.422 382.007C558.743 382.007 552.457 383.712 546.987 386.689C543.844 384.908 540.167 383.152 536.02 381.422C529.137 378.547 521.223 376.079 512.521 374.119L494.899 336.409ZM141.377 302.948C150.671 302.948 158.209 310.48 158.209 319.774C158.209 329.068 150.671 336.6 141.377 336.6C132.083 336.6 124.551 329.068 124.551 319.774C124.551 310.48 132.083 302.948 141.377 302.948ZM565.422 393.814C580.219 393.814 592.203 405.799 592.203 420.608C592.203 435.392 580.219 447.377 565.422 447.377C562.139 447.377 558.997 446.792 556.083 445.723C553.857 446.792 551.541 447.835 549.162 448.828C526.439 458.293 495.447 464.146 461.578 464.146C367.493 464.146 350.006 436.283 332.518 408.42C324.738 396.028 316.952 383.636 293.809 376.079L308.561 344.259C339.268 354.819 350.375 372.516 361.475 390.175C372.621 407.936 383.766 425.672 439.988 429.184L380.343 301.383C374.313 289.061 361.653 280.568 346.997 280.568C332.353 280.568 319.687 289.061 313.657 301.383L220.341 501.347L187.707 570.865C181.511 583.358 168.814 591.221 154.895 591.221H97L161.473 452.822C209.521 450.303 232.428 429.82 232.428 429.82C182.027 452.975 100.69 443.789 100.69 399.31C100.69 378.547 117.566 361.116 144.844 349.774C160.347 343.324 179.698 338.553 201.187 336.173L184.037 373.559C174.317 375.62 165.531 378.267 157.98 381.422C143.794 387.325 135.009 393.738 135.009 399.31C135.009 404.857 143.794 411.295 157.98 417.199C163.216 419.387 169.043 421.321 175.366 423L221.995 322.884L314.096 125.547C320.044 113.378 332.544 105 346.997 105C361.45 105 373.956 113.378 379.898 125.547L471.998 322.884L518.64 423C524.951 421.321 530.778 419.387 536.02 417.199C537.063 416.766 538.068 416.333 539.048 415.901C541.274 403.331 552.228 393.814 565.422 393.814ZM539.544 467.886L597 591.221H539.098C525.18 591.221 512.482 583.358 506.286 570.865L473.652 501.347L463.525 479.617C502.559 479.82 526.159 473.586 539.544 467.886Z" fill="#3043D3"/>
<path d="M136.782 0.879669H558.191C595.75 0.879669 629.881 16.2371 654.625 40.9677C679.356 65.705 694.713 99.849 694.713 137.402V558.81C694.713 596.357 679.356 630.514 654.625 655.231C629.881 679.975 595.75 695.333 558.191 695.333H136.782C99.2294 695.333 65.0921 679.975 40.3548 655.231C15.6242 630.514 0.26004 596.357 0.26004 558.81V137.402C0.26004 99.849 15.6242 65.705 40.3548 40.9677C65.0921 16.2371 99.2294 0.879669 136.782 0.879669ZM558.191 30.1556H136.782C107.305 30.1556 80.4965 42.225 61.051 61.6639C41.6121 81.1095 29.536 107.924 29.536 137.402V558.81C29.536 588.288 41.6121 615.103 61.051 634.548C80.4965 653.994 107.305 666.07 136.782 666.07H558.191C587.668 666.07 614.483 653.994 633.929 634.548C653.361 615.103 665.437 588.288 665.437 558.81V137.402C665.437 107.924 653.361 81.1095 633.929 61.6639C614.483 42.225 587.668 30.1556 558.191 30.1556Z" fill="#3043D3"/>
</svg>
